PathFileType	4	(X/Y/Z)	C:/Users/beibeiliu/ov580/test_trc/User1\sequence.31_training_dense_right.trc
DataRate	CameraRate	NumFrames	NumMarkers	Units	OrigDataRate	OrigDataStartFrame	OrigNumFrames
120	120	24	19	mm	120	1	256
Frame#	Time	ThumbCMC			ThumbMCP			ThumbIP			ThumbTip			IndexMCP			IndexPIP			IndexTip			MiddleMCP			MiddlePIP			MiddleTip			RingMCP			RingPIP			RingTip			PinkyMCP			PinkyPIP			PinkyTip			BackHand1			BackHand2			BackHand3	
		X0	Y0	Z0	X1	Y1	Z1	X2	Y2	Z2	X3	Y3	Z3	X4	Y4	Z4	X5	Y5	Z5	X6	Y6	Z6	X7	Y7	Z7	X8	Y8	Z8	X9	Y9	Z9	X10	Y10	Z10	X11	Y11	Z11	X12	Y12	Z12	X13	Y13	Z13	X14	Y14	Z14	X15	Y15	Z15	X16	Y16	Z16	X17	Y17	Z17	X18	Y18	Z18	
0	0	125.117	-28.0133	83.6268	105.764	-42.8246	51.422	105.27	-46.4508	21.2585	112.128	-53.4547	-3.02283	140.878	17.4265	12.4043	140.007	10.9117	-22.4942	133.707	-13.0533	-37.7318	170.389	19.8877	6.89534	164.154	13.4121	-27.8321	158.545	-23.2013	-40.1317	190	10.6405	11.4122	188.174	4.43135	-22.4428	181.133	-26.5141	-34.0132	206.379	-9.84124	22.1591	206.727	-12.6975	-6.24457	194.702	-29.3584	-26.2994	188.261	-2.81212	66.8606	187.811	-10.1788	101.43	154.429	0.223005	85.3632	
1	0.00833333	122.814	-26.4784	79.0694	109.16	-42.1112	53.224	106.772	-44.626	20.4032	108.813	-54.7373	-3.05569	139.967	17.1387	12.5747	137.234	13.6143	-22.444	135.629	-16.9876	-37.303	165.857	20.4996	8.24338	161.875	11.9532	-29.871	156.926	-23.6836	-40.0745	187.185	12.4935	9.52221	192.585	5.02915	-20.3481	179.599	-25.368	-33.4061	205.172	-9.59924	23.0413	205.96	-12.2406	-6.9112	188.731	-30.0439	-24.2215	187.239	-2.99263	66.7575	187.359	-10.8615	100.543	153.282	2.39677	82.8899	
2	0.0166667	121.485	-28.3435	83.8803	109.906	-40.8237	50.8176	105.07	-44.2232	20.7602	111.382	-51.0239	-2.76662	140.153	18.1515	12.5139	136.9	16.8028	-19.174	136.878	-13.4653	-35.8426	165.803	23.1929	3.75002	161.751	13.7986	-29.2845	156.999	-23.8772	-39.0006	189.462	12.4927	10.7534	188.022	7.10105	-19.8895	180.252	-24.1076	-31.7416	205.208	-6.68322	22.1745	206.642	-10.7899	-4.4641	191.133	-26.4878	-23.2179	187.839	-1.53064	65.8753	190.21	-8.58311	98.2854	154.942	2.44758	84.4076	
3	0.025	120.544	-26.6597	81.268	106.799	-41.2817	53.0244	105.249	-42.394	19.9972	109.731	-51.1546	-4.69552	137.743	18.8471	14.4934	136.248	14.5472	-22.0154	136.858	-15.4224	-34.9537	169.447	22.839	5.82099	164.907	12.4102	-29.9785	159.163	-22.5886	-37.41	187.712	14.8574	9.47281	187.779	4.88862	-23.5563	177.962	-24.3944	-30.9087	204.926	-6.48444	23.2706	205.985	-8.53364	-2.89483	189.507	-29.4265	-24.7937	185.132	0.983298	66.5045	188.548	-10.9612	99.8806	151.158	3.74115	80.9393	
4	0.0333333	119.602	-24.7689	80.5813	107.76	-39.6739	52.81	103.735	-41.9122	21.935	109.576	-49.8566	-4.10978	140.108	20.5839	11.1432	137.007	17.2866	-20.2406	137.025	-15.0125	-33.6322	165.039	22.7242	8.98637	162.796	12.5932	-29.4918	156.266	-20.145	-38.4559	187.115	12.0668	13.5273	184.7	5.23989	-23.4689	177.069	-25.746	-31.7485	206.26	-8.18512	25.2894	204.17	-9.25662	-6.98433	189.082	-29.3126	-23.9389	185.979	-1.18442	68.8638	191.98	-9.38917	100.2	156.88	1.96173	84.2071	
5	0.0416667	120.797	-24.6756	79.8433	109.786	-38.9165	53.1483	104.665	-42.9327	26.9248	107.479	-49.7829	0.0891957	137.509	19.7485	12.5519	140.909	14.1891	-21.0873	130.32	-15.631	-34.9528	167.875	21.8646	8.60876	166.016	14.5933	-27.8731	155.833	-18.5238	-38.5175	186.626	13.4797	10.4823	188.815	6.39717	-21.9133	176.398	-21.4118	-30.9575	207.782	-7.60631	21.8349	204.211	-7.70444	-3.83736	189.312	-29.9264	-26.8707	190.656	-2.07617	65.6071	189.826	-9.69561	97.0797	157.268	3.26286	80.6702	
6	0.05	123.036	-24.7139	80.8081	105.332	-38.5642	54.6248	99.4032	-41.838	24.1952	103.355	-51.2027	-1.06203	138.713	20.2312	12.4855	135.551	16.5477	-21.3011	135.366	-14.6883	-34.4627	164.859	23.5624	7.63015	162.92	15.5332	-27.6369	155.001	-19.8758	-38.5076	190.554	13.5107	10.4102	189.271	6.01908	-22.1246	179.102	-22.4336	-31.7516	204.937	-8.06913	24.2456	206.587	-10.6008	-6.61703	188.903	-30.131	-26.4425	187.261	-1.04586	68.7591	187.575	-9.94588	99.1315	154.999	3.2848	81.2196	
7	0.0583333	121.653	-26.4378	84.9648	105.403	-38.3215	54.7883	99.9243	-41.7857	25.9694	102.935	-49.6374	-1.85118	136.761	21.2328	12.4748	138.141	14.3154	-22.1028	132.567	-15.5914	-36.4677	166.838	22.8309	5.64437	162.792	14.3712	-28.4281	156.582	-24.1927	-39.0193	191.074	12.5883	9.43444	189.971	4.7524	-22.9331	176.758	-21.0487	-32.8018	205.352	-8.46405	25.4416	205.206	-8.02881	-3.33695	190.932	-27.5979	-27.3837	186.784	1.62394	65.1611	188.425	-9.98057	101.098	152.815	3.08961	84.4388	
8	0.0666667	124.327	-25.0274	80.3918	105.421	-39.4581	55.5411	101.221	-42.6141	28.6571	101.077	-51.4955	1.20021	138.606	19.7401	10.9881	137.304	16.1949	-21.5436	135.748	-11.132	-36.5944	167.381	22.4265	7.04438	163.348	12.6221	-29.8712	156.557	-17.1067	-40.1277	187.576	12.4108	13.6981	187.589	7.92809	-20.4241	177.89	-23.6405	-33.9504	206.724	-7.8911	23.6363	203.309	-9.41598	-4.96397	194.252	-27.1909	-25.6625	190.901	0.163879	66.2116	191.543	-9.64253	97.7345	156.127	1.05942	84.3715	
9	0.075	121.582	-25.7333	85.6607	104.787	-39.7017	55.7747	98.7145	-42.8312	29.6373	99.2537	-50.7023	0.993959	140.5	19.3286	11.2268	136.073	17.7676	-18.4002	134.343	-12.5147	-38.1923	163.987	23.865	4.81642	162.915	13.3855	-30.0252	155.733	-16.3662	-43.0219	188.461	11.9224	13.5124	186.836	8.48631	-20.3151	177.843	-20.3943	-35.0839	208.986	-8.90448	23.3636	205.544	-9.75911	-4.90781	190.716	-25.0474	-26.2692	185.36	-2.45749	67.6986	191.034	-9.47968	96.4104	157.929	2.42787	85.4	
10	0.0833333	124.105	-24.136	83.2478	102.139	-38.1642	55.5138	94.8061	-43.8908	29.2909	97.6498	-51.461	2.54327	137.862	17.5596	14.6266	135.335	15.727	-21.754	138.287	-8.60474	-40.1765	166.441	21.0755	4.98754	166.682	15.5748	-28.143	158.863	-15.7103	-45.7976	190.227	12.0955	10.1884	188.944	8.40486	-21.2255	180.239	-18.1257	-37.9478	210.116	-11.3846	23.0893	207.533	-11.2494	-4.22601	193.691	-27.2387	-29.4215	185.823	-3.16379	69.0437	190.067	-9.13447	100.567	156.694	0.0130438	84.4977	
11	0.0916667	122.52	-26.1821	87.03	106.617	-38.5039	58.834	94.6029	-43.7157	28.3192	91.9374	-53.4976	3.43259	135.778	16.1762	11.0318	137.076	15.1427	-22.0637	135.24	-7.99124	-44.6429	163.89	18.1293	6.64338	165.431	13.9585	-30.6387	157.393	-12.8096	-52.0423	189.813	10.1104	10.2051	191.194	7.03606	-21.5364	181.16	-17.4949	-42.4718	207.08	-11.5121	19.5311	211.638	-15.1126	-6.80895	203.708	-27.2312	-30.6423	187.957	-2.10183	62.9615	189.357	-9.08452	97.6827	152.676	1.89422	79.6432	
12	0.1	119.688	-25.0953	85.6668	104.284	-39.8402	59.608	93.4962	-47.3444	35.6812	86.9852	-56.9418	11.7749	134.68	14.7807	7.18953	136.729	13.0092	-23.3297	133.4	-2.13754	-45.574	163.844	16.7472	-0.341489	167.481	9.48003	-34.2423	162.692	-12.0562	-57.0378	188.911	7.07603	6.96004	193.635	3.70122	-25.8026	184.244	-13.2195	-48.2394	211.043	-15.7614	19.4748	214.077	-17.7812	-4.54361	210.678	-25.338	-31.0173	186.178	-1.38255	62.8705	188.824	-8.90168	94.9682	153.221	2.55202	81.4908	
13	0.108333	123.04	-24.2931	81.3941	101.858	-41.6848	60.2026	91.5387	-48.7564	36.5389	81.8891	-61.5547	17.564	138.11	8.01523	6.60108	137.899	9.85351	-25.0983	135.307	-3.33479	-54.0445	169.05	10.0421	0.894469	169.127	8.53151	-32.8499	167.043	-10.5312	-64.4978	192.713	2.04644	3.78331	190.874	2.7741	-24.5169	192.632	-9.47818	-48.6745	212.667	-21.9339	21.9947	219.482	-24.2325	-4.21489	219.877	-24.3711	-26.5687	185.602	-4.81144	62.9445	188.9	-7.71806	91.7996	152.371	2.10094	78.533	
14	0.116667	120.03	-23.6128	80.6072	96.9207	-41.8777	64.5135	86.6557	-50.6186	40.2181	74.6236	-63.6258	17.9867	135.371	5.51142	0.46276	137.375	4.80573	-28.9911	135.358	-1.17853	-53.4801	165.077	5.7376	-3.69668	170.91	4.91686	-33.1881	169.895	-6.0494	-66.3508	193.756	-3.57411	3.70589	196.454	-0.857637	-27.9669	196.191	-8.41775	-54.1674	211.58	-26.7183	21.0172	223.683	-28.6512	2.61431	230.32	-26.7234	-24.8372	188.594	-7.23038	59.0413	186.671	-6.89089	91.8316	152.833	0.178292	71.5133	
15	0.125	117.586	-21.9844	80.4514	97.5953	-41.3848	65.6754	82.2451	-51.5638	45.5769	70.6793	-64.5551	28.6891	134.308	0.303591	-0.363483	133.918	0.677879	-29.1469	134.65	-0.601985	-53.3174	166.334	1.28071	-7.18333	166.826	2.23521	-37.1701	169.949	-1.10948	-64.4987	189.347	-6.55864	1.45678	199.92	-4.31002	-22.048	202.012	-6.14221	-50.6915	212.951	-30.0872	21.2635	223.986	-32.5302	4.59022	234.284	-27.5019	-17.8287	189.715	-7.82199	58.8893	190.51	-6.0544	88.3341	153.167	-1.01564	73.2094	
16	0.133333	120.98	-22.3562	81.2055	95.3071	-40.6126	66.9136	81.9448	-51.4439	44.231	66.5981	-64.8968	31.072	134.049	-2.78395	-1.87642	132.33	-1.58451	-27.3443	138.566	-1.16798	-54.6643	164.957	-0.627276	-4.12383	167.204	0.644285	-33.6489	175.713	-0.689014	-62.0175	188.966	-10.5072	5.4752	197.472	-6.0483	-24.6079	201.591	-4.17367	-49.954	212.408	-31.7698	24.3534	223.978	-34.065	2.77929	236.542	-27.6891	-16.061	187.169	-7.97649	58.3945	189.933	-5.28961	90.7545	153.856	-1.5902	72.8705	
17	0.141667	117.591	-21.0387	80.1487	97.5655	-41.4116	64.3132	79.3412	-51.7915	50.1638	65.0277	-63.0546	37.7139	136.333	-5.01386	-2.64064	135.701	-3.59899	-27.8366	138.476	-3.4141	-51.9324	167.637	-2.79217	-7.27351	169.898	-0.197807	-36.5079	172.137	1.76005	-63.6122	188.426	-10.3317	2.12509	199.958	-6.87204	-25.5676	200.561	-4.63435	-47.3169	212.194	-31.978	19.8903	225.395	-34.7761	3.99143	239.939	-27.9468	-9.12296	187.921	-8.25876	56.9498	189.154	-4.37071	91.3666	150.434	-0.849731	71.5703	
18	0.15	115.563	-20.1873	84.7307	95.7185	-40.2669	66.3067	77.5907	-51.3141	53.1443	60.9114	-62.8879	39.3628	132.352	-6.59288	0.121153	134.479	-5.1449	-24.9834	140.01	-3.22849	-53.7954	164.135	-2.24961	-8.03794	170.063	-1.63046	-31.866	176.982	0.745681	-63.4124	191.992	-12.9117	5.98017	196.812	-7.4883	-20.401	201.313	-4.94462	-47.3896	210.677	-32.5917	23.8672	224.749	-34.6521	4.25737	237.737	-29.8587	-7.56676	182.918	-8.07695	54.6197	184.973	-5.55387	88.3363	152.612	-0.0343724	70.0011	
19	0.158333	115.43	-19.7176	81.4285	97.2566	-39.497	65.4409	80.4692	-50.5797	52.8227	61.302	-62.9217	40.2493	133.088	-8.51275	1.89978	133.13	-5.58176	-25.9721	134.805	-4.38461	-50.3201	168.996	-4.07711	-7.46359	170.51	-1.85479	-34.5384	175.482	1.52314	-64.1051	191.506	-12.0822	1.32734	195.03	-7.05402	-23.2277	202.163	-4.97405	-49.7892	208.86	-33.196	23.6606	223.555	-35.359	7.75502	237.187	-26.5602	-12.0747	182.518	-7.81153	52.2549	186.988	-3.47566	85.0584	153.14	0.162779	71.3259	
20	0.166667	118.671	-20.5096	79.0049	97.7394	-38.6704	69.6478	75.3286	-50.4097	54.3439	64.2239	-62.8098	38.8044	137.334	-8.34119	-0.860781	132.079	-5.55714	-26.4985	135.23	-4.9863	-51.8781	164.95	-3.67962	-4.29438	170.347	-1.02461	-31.8604	173.007	2.69901	-65.421	190.329	-11.3612	1.51323	196.071	-6.89346	-25.0333	205.281	-6.54882	-45.9455	214.438	-33.7953	23.7291	225.148	-36.2685	10.1061	240.496	-29.1459	-7.70511	188.31	-7.9886	56.8358	189.412	-2.35329	87.7105	148.882	0.000182376	65.7041	
21	0.175	116.801	-19.4988	79.0261	97.6537	-40.1923	65.508	75.2309	-50.7814	52.6873	62.6494	-63.5174	42.4536	135.367	-7.32378	-4.02513	132.519	-5.27436	-24.7399	135.514	-4.34252	-55.7648	166.843	-3.32931	-6.96416	167.09	-0.220877	-36.4975	174.318	1.83765	-64.5037	193.445	-11.5777	0.795069	197.681	-8.55338	-21.4227	205.326	-6.37854	-46.2674	215.243	-33.366	20.7554	224.451	-35.5972	6.2576	238.848	-28.3916	-10.0723	183.241	-6.95816	56.8382	187.792	-3.47436	87.5763	153.848	0.728509	69.0682	
22	0.183333	118.086	-19.3523	79.226	99.2895	-39.4865	68.4327	77.3651	-50.3831	48.8602	62.5186	-63.7842	38.4168	134.607	-6.01044	-3.33508	134.071	-5.9823	-28.8266	138.053	-5.60852	-53.7349	169.181	-4.90761	-3.71595	171.383	-1.99656	-34.3739	175.062	-0.00232054	-66.8801	193.453	-12.5915	5.09749	197.64	-7.32501	-22.4735	206.48	-6.95364	-47.4702	212.361	-32.4215	18.9472	225.895	-36.1513	8.15351	237.36	-27.0736	-12.6474	184.26	-6.48499	52.1556	186.021	-3.86814	89.6665	153.046	0.0185342	66.0232	
23	0.191667	116.731	-19.3808	82.2401	98.4802	-39.9927	67.2928	82.2654	-50.8435	51.0903	61.8188	-64.2535	39.3392	138.234	-6.07372	1.18715	133.257	-3.48745	-28.055	140.104	-6.1652	-52.5804	166.021	-3.30329	-3.25092	171.566	-1.6247	-34.6114	175.234	-1.65022	-63.3695	192.527	-12.4771	3.22966	201.604	-7.64642	-25.4279	203.237	-7.86291	-52.201	213.951	-33.0372	20.457	221.993	-34.8323	8.32513	239.477	-31.8015	-11.5502	186.525	-8.89678	52.6478	188.207	-2.58663	89.7204	153.305	1.01358	70.8564	
